<?xml version="1.0" encoding="UTF-8" standalone="no"?>
<!DOCTYPE svg PUBLIC "-//W3C//DTD SVG 1.1//EN" "http://www.w3.org/Graphics/SVG/1.1/DTD/svg11.dtd">
<!-- Created with Vectornator (http://vectornator.io/) -->
<svg height="100%" stroke-miterlimit="10" style="fill-rule:nonzero;clip-rule:evenodd;stroke-linecap:round;stroke-linejoin:round;" version="1.1" viewBox="0 0 451.04 128.99" width="100%" xml:space="preserve" xmlns="http://www.w3.org/2000/svg" xmlns:vectornator="http://vectornator.io" xmlns:xlink="http://www.w3.org/1999/xlink">
<defs/>
<path d="M0 0L451.04 0L451.04 128.99L0 128.99L0 0Z" fill="#ffffff" fill-rule="nonzero" opacity="1" stroke="none"/>
<g id="Capa-1" vectornator:layerName="Capa 1">
<g opacity="1" vectornator:layerName="g"/>
<g fill="#a7734e" opacity="1" stroke="none" vectornator:layerName="Text 1">
<path d="M183.831 8.54537C188.338 8.54537 191.944 10.4815 194.648 14.3537C197.352 18.2259 198.705 23.6654 198.705 30.6722C198.705 37.5971 197.363 43.0263 194.679 46.96C191.995 50.8937 188.481 52.8605 184.138 52.8605C179.712 52.8605 176.148 50.8834 173.443 46.9293C170.739 42.9751 169.387 37.5766 169.387 30.7337C169.387 23.9727 170.708 18.5844 173.351 14.5688C175.994 10.5532 179.487 8.54537 183.831 8.54537ZM184.015 10.758C180.778 10.758 178.514 12.3356 177.223 15.4907C175.932 18.6459 175.287 23.6859 175.287 30.6107C175.287 37.6176 175.932 42.7088 177.223 45.8844C178.514 49.06 180.778 50.6478 184.015 50.6478C187.129 50.6478 189.372 49.0805 190.745 45.9459C192.118 42.8112 192.804 37.8634 192.804 31.1024C192.804 24.0546 192.169 18.9737 190.899 15.8595C189.506 12.4585 187.211 10.758 184.015 10.758Z"/>
<path d="M209.461 32.5161C209.461 25.5502 211.202 19.7727 214.685 15.1834C218.045 10.758 222.184 8.54537 227.101 8.54537C229.846 8.54537 232.223 9.2522 234.231 10.6659C236.238 12.0795 237.242 13.7902 237.242 15.798C237.242 17.0683 236.863 18.1029 236.105 18.902C235.347 19.701 234.374 20.1005 233.186 20.1005C232.161 20.1005 231.291 19.7624 230.573 19.0863C229.856 18.4102 229.498 17.601 229.498 16.6585C229.498 16.1259 229.805 15.3268 230.42 14.2615C230.748 13.6878 230.912 13.2371 230.912 12.9093C230.912 12.2946 230.563 11.7824 229.867 11.3727C229.17 10.9629 228.228 10.758 227.039 10.758C223.72 10.758 221.006 12.4585 218.895 15.8595C216.785 19.2605 215.73 23.7473 215.73 29.32L215.792 31.84C217.308 29.8732 218.885 28.4185 220.524 27.4761C222.368 26.4107 224.437 25.878 226.732 25.878C230.051 25.878 232.868 27.0151 235.183 29.2893C237.498 31.5634 238.656 34.5034 238.656 38.1093C238.656 42.3298 237.334 45.8434 234.692 48.6502C232.049 51.4571 228.658 52.8605 224.519 52.8605C219.971 52.8605 216.324 50.9961 213.579 47.2673C210.833 43.5385 209.461 38.6215 209.461 32.5161ZM225.011 28.8898C222.389 28.8898 220.278 29.8322 218.68 31.7171C217.082 33.602 216.283 36.1834 216.283 39.4615C216.283 42.9854 217.052 45.7307 218.588 47.6976C220.125 49.6644 222.143 50.6478 224.642 50.6478C227.183 50.6478 229.17 49.7259 230.604 47.882C232.038 46.038 232.755 43.3337 232.755 39.7688C232.755 32.5161 230.174 28.8898 225.011 28.8898Z"/>
<path d="M292.744 52L292.006 46.161C289.589 50.3815 286.474 52.4917 282.664 52.4917C279.304 52.4917 276.497 51.0883 274.243 48.2815C271.99 45.4746 270.863 41.8585 270.863 37.4332C270.863 33.0488 272.072 29.4532 274.489 26.6463C276.907 23.8395 279.816 22.4361 283.217 22.4361C286.946 22.4361 289.875 24.2595 292.006 27.9063L292.006 11.68C292.006 9.79512 290.613 8.85268 287.827 8.85268L285.86 8.85268L285.86 6.57854L297.108 5.9639L297.108 45.362C297.108 48.2302 298.255 49.6644 300.55 49.6644L302.578 49.6644L302.578 52L292.744 52ZM284.016 24.8332C279.181 24.8332 276.763 28.7463 276.763 36.5727C276.763 45.3005 279.16 49.6644 283.954 49.6644C286.331 49.6644 288.267 48.5171 289.763 46.2224C291.258 43.9278 292.006 40.7317 292.006 36.6341C292.006 33.1102 291.248 30.2624 289.732 28.0907C288.216 25.919 286.311 24.8332 284.016 24.8332Z"/>
<path d="M329.069 43.2722L331.097 44.1327C328.106 49.9512 323.783 52.8605 318.128 52.8605C314.235 52.8605 310.988 51.4776 308.386 48.7117C305.784 45.9459 304.483 42.3707 304.483 37.9863C304.483 33.3561 305.753 29.5863 308.294 26.6771C310.834 23.7678 314.051 22.3132 317.944 22.3132C321.877 22.3132 325.022 23.6961 327.378 26.462C329.734 29.2278 330.912 33.0488 330.912 37.9249L310.261 37.9249C310.261 39.5229 310.363 40.9366 310.568 42.1659C310.773 43.3951 311.121 44.4605 311.613 45.362C313.293 48.5171 315.895 50.0946 319.419 50.0946C323.434 50.0946 326.651 47.8205 329.069 43.2722ZM310.261 35.5893L322.738 35.5893C324.295 35.5893 325.073 34.5649 325.073 32.5161C325.073 30.2215 324.387 28.2649 323.014 26.6463C321.642 25.0278 319.972 24.2185 318.005 24.2185C315.711 24.2185 313.846 25.2224 312.412 27.2302C310.978 29.238 310.261 32.0244 310.261 35.5893Z"/>
</g>
<g fill="#a7734e" opacity="1" stroke="none" vectornator:layerName="Text 2">
<path d="M155.158 111.628L170.647 73.0901L172.675 73.0901L189.024 114.639C189.639 116.319 190.971 117.159 193.019 117.159L194.433 117.159L194.433 119.495L176.301 119.495L176.301 117.159L177.776 117.159C180.972 117.159 182.571 116.524 182.571 115.254C182.571 114.885 182.489 114.516 182.325 114.148L178.575 104.436L160.567 104.436L158.477 110.03C158.108 111.013 157.903 111.628 157.862 111.874C157.698 112.488 157.616 113.103 157.616 113.717C157.616 114.619 158.118 115.418 159.122 116.115C160.126 116.811 161.468 117.159 163.148 117.159L164.685 117.159L164.685 119.495L148.212 119.495L148.212 117.159L148.704 117.159C151.532 117.159 153.683 115.315 155.158 111.628ZM177.653 102.101L169.725 81.8794L161.612 102.101L177.653 102.101Z"/>
<path d="M219.51 119.495L196.523 119.495L196.523 117.159L200.333 117.159C201.358 117.159 202.167 117.006 202.761 116.698C203.355 116.391 203.652 115.951 203.652 115.377L203.652 79.0521C203.652 77.2901 202.628 76.4091 200.579 76.4091L196.523 76.4091L196.523 74.0735L220.248 74.0735C224.714 74.0735 228.228 75.057 230.789 77.0238C233.35 78.9906 234.63 81.613 234.63 84.8911C234.63 87.4316 233.759 89.593 232.018 91.3755C230.276 93.1579 227.685 94.5818 224.243 95.6472C232.807 97.4911 237.089 101.384 237.089 107.325C237.089 110.849 235.501 113.758 232.325 116.053C229.15 118.348 224.878 119.495 219.51 119.495ZM210.106 78.6833L210.106 94.9096L218.711 94.9096C224.489 94.9096 227.377 91.5906 227.377 84.9526C227.377 81.4696 226.435 79.134 224.55 77.9457C222.952 76.9213 220.002 76.4091 215.699 76.4091C213.773 76.4091 212.36 76.4604 211.458 76.5628C210.557 76.6652 210.106 77.3721 210.106 78.6833ZM219.449 97.2452L210.106 97.2452L210.106 114.701C210.106 116.34 211.212 117.159 213.425 117.159L218.957 117.159C226.087 117.159 229.652 113.84 229.652 107.202C229.652 104.088 228.75 101.65 226.947 99.8882C225.144 98.1262 222.645 97.2452 219.449 97.2452Z"/>
<path d="M253.745 97.2452L253.745 115.008C253.745 116.442 254.544 117.159 256.142 117.159L260.998 117.159L260.998 119.495L239.854 119.495L239.854 117.159L244.341 117.159C246.267 117.159 247.23 116.442 247.23 115.008L247.23 78.6833C247.23 77.8228 247.015 77.2287 246.585 76.9009C246.154 76.573 245.407 76.4091 244.341 76.4091L239.854 76.4091L239.854 74.0735L263.333 74.0735C267.841 74.0735 271.365 75.0774 273.905 77.0852C276.446 79.093 277.716 81.8179 277.716 85.2599C277.716 88.0462 276.773 90.3818 274.889 92.2667C273.536 93.6189 271.856 94.6023 269.849 95.217C268.414 95.6677 266.161 96.057 263.088 96.3848C265.915 97.1633 267.943 97.9828 269.172 98.8433C271.016 100.114 272.225 101.896 272.799 104.191C274.725 111.976 276.405 115.869 277.839 115.869C278.617 115.869 279.263 115.295 279.775 114.148C280.287 113 280.543 111.443 280.543 109.476L282.633 109.476C282.633 116.483 280.052 119.987 274.889 119.987C272.676 119.987 270.904 119.188 269.572 117.59C268.24 115.992 267.574 113.717 267.574 110.767C267.574 106.055 266.919 102.695 265.608 100.687C264.092 98.3926 261.367 97.2452 257.433 97.2452L253.745 97.2452ZM253.745 78.6218L253.745 94.9096L259.154 94.9096C263.17 94.9096 266.089 94.1823 267.912 92.7277C269.736 91.273 270.648 88.9067 270.648 85.6287C270.648 81.654 269.582 79.0316 267.452 77.7613C265.935 76.8599 263.129 76.4091 259.031 76.4091C257.187 76.4091 256.122 76.4296 255.835 76.4706C254.442 76.6755 253.745 77.3926 253.745 78.6218Z"/>
<path d="M284.723 76.4091L284.723 74.0735L305.682 74.0735L305.682 76.4091L302.117 76.4091C300.478 76.4091 299.464 76.6038 299.074 76.993C298.685 77.3823 298.491 78.2121 298.491 79.4823L298.491 113.902C298.491 114.885 298.572 115.582 298.736 115.992C299.064 116.77 300.048 117.159 301.687 117.159L305.682 117.159L305.682 119.495L284.723 119.495L284.723 117.159L288.718 117.159C290.111 117.159 291.012 116.955 291.422 116.545C291.832 116.135 292.037 115.254 292.037 113.902L292.037 79.4823C292.037 78.2121 291.852 77.413 291.484 77.0852C290.992 76.6345 289.927 76.4091 288.288 76.4091L284.723 76.4091Z"/>
<path d="M307.894 76.4091L307.894 74.0735L328.976 74.0735L328.976 76.4091L323.936 76.4091C322.338 76.4091 321.539 77.1262 321.539 78.5604L321.539 115.254C321.539 116.524 322.769 117.159 325.227 117.159L331.558 117.159C335.246 117.159 338.114 115.951 340.163 113.533C342.212 111.115 343.707 107.264 344.65 101.978L346.801 101.978L345.817 119.495L307.894 119.495L307.894 117.159L311.644 117.159C312.873 117.159 313.754 116.944 314.287 116.514C314.819 116.084 315.086 115.295 315.086 114.148L315.086 78.6218C315.086 77.1467 314.41 76.4091 313.057 76.4091L307.894 76.4091Z"/>
</g>
</g>
</svg>
