<?xml version="1.0" encoding="UTF-8" standalone="no"?>
<!DOCTYPE svg PUBLIC "-//W3C//DTD SVG 1.1//EN" "http://www.w3.org/Graphics/SVG/1.1/DTD/svg11.dtd">
<!-- Created with Vectornator (http://vectornator.io/) -->
<svg height="100%" stroke-miterlimit="10" style="fill-rule:nonzero;clip-rule:evenodd;stroke-linecap:round;stroke-linejoin:round;" version="1.1" viewBox="0 0 286.22 280.7" width="100%" xml:space="preserve" xmlns="http://www.w3.org/2000/svg" xmlns:vectornator="http://vectornator.io" xmlns:xlink="http://www.w3.org/1999/xlink">
<defs/>
<path d="M0 0L286.22 0L286.22 280.7L0 280.7L0 0Z" fill="#ffffff" fill-rule="nonzero" opacity="1" stroke="none"/>
<clipPath id="ArtboardFrame">
<rect height="280.7" width="286.22" x="0" y="0"/>
</clipPath>
<g clip-path="url(#ArtboardFrame)" id="Capa-1" vectornator:layerName="Capa 1">
<path d="M64.72 141.87L2.72 141.87" fill="#000000" fill-rule="nonzero" opacity="1" stroke="none" vectornator:layerName="line"/>
<path d="M286.22 141.37L211.22 141.37" fill="#000000" fill-rule="nonzero" opacity="1" stroke="none" vectornator:layerName="line"/>
<g fill="#a7734e" opacity="1" stroke="none" vectornator:layerName="Text 1">
<path d="M37.9457 50.5021L49.9925 20.5284L51.5701 20.5284L64.2862 52.8445C64.7642 54.1512 65.8 54.8045 67.3935 54.8045L68.493 54.8045L68.493 56.6211L54.3906 56.6211L54.3906 54.8045L55.5379 54.8045C58.0237 54.8045 59.2666 54.3106 59.2666 53.3226C59.2666 53.0358 59.2029 52.7489 59.0754 52.4621L56.1593 44.9089L42.1525 44.9089L40.5271 49.2592C40.2403 50.0241 40.081 50.5021 40.0491 50.6933C39.9216 51.1714 39.8579 51.6494 39.8579 52.1275C39.8579 52.8286 40.2483 53.4501 41.0291 53.9919C41.8099 54.5337 42.8536 54.8045 44.1603 54.8045L45.3554 54.8045L45.3554 56.6211L32.5437 56.6211L32.5437 54.8045L32.9262 54.8045C35.1252 54.8045 36.7984 53.3704 37.9457 50.5021ZM55.4423 43.0924L49.2754 27.3645L42.9652 43.0924L55.4423 43.0924Z"/>
<path d="M70.1662 23.1099L70.1662 21.2933L78.6754 21.2933L99.9486 49.0202L99.9486 28.9421C99.9486 25.0221 98.2117 23.0621 94.7379 23.0621L94.7379 21.2933L107.167 21.2933L107.167 23.1099L106.689 23.1099C105.223 23.1099 104.076 23.588 103.247 24.5441C102.419 25.5002 102.004 26.8228 102.004 28.5119L102.004 56.6211L99.7574 56.6211L77.6715 27.747L77.6715 49.0202C77.6715 52.8764 79.6634 54.8045 83.6471 54.8045L83.6471 56.6211L70.1662 56.6211L70.1662 54.8045C71.7915 54.8045 73.1141 54.2946 74.134 53.2748C75.1538 52.255 75.6637 50.9324 75.6637 49.307L75.6637 25.3567C74.6758 24.3369 74.1658 23.811 74.134 23.7792C73.5603 23.333 72.7795 23.1099 71.7915 23.1099L70.1662 23.1099Z"/>
<path d="M109.079 23.1099L109.079 21.2933L127.341 21.2933C129.508 21.2933 131.34 21.5403 132.838 22.0343C134.336 22.5283 135.85 23.4924 137.38 24.9265C140.949 28.3047 142.734 32.9577 142.734 38.8855C142.734 43.921 141.547 47.9684 139.173 51.028C136.798 54.0875 133.476 55.8881 129.205 56.4299C128.727 56.4937 128.098 56.5415 127.317 56.5733C126.536 56.6052 125.907 56.6211 125.429 56.6211L109.079 56.6211L109.079 54.8045L112.426 54.8045C113.955 54.8045 114.72 54.2468 114.72 53.1314L114.72 24.6875C114.72 23.6358 114.051 23.1099 112.713 23.1099L109.079 23.1099ZM125.954 23.1099L121.939 23.1099C120.505 23.1099 119.788 23.6836 119.788 24.8309L119.788 53.0836C119.788 54.2309 120.664 54.8045 122.417 54.8045L125.429 54.8045C129.476 54.8045 132.408 53.5696 134.225 51.0997C136.041 48.6297 136.95 44.7496 136.95 39.4592C136.95 33.8501 136.057 29.7229 134.273 27.0777C132.488 24.4325 129.715 23.1099 125.954 23.1099Z"/>
<path d="M155.45 39.3158L155.45 53.1314C155.45 54.2468 156.072 54.8045 157.314 54.8045L161.091 54.8045L161.091 56.6211L144.646 56.6211L144.646 54.8045L148.136 54.8045C149.634 54.8045 150.383 54.2468 150.383 53.1314L150.383 24.8787C150.383 24.2094 150.215 23.7473 149.881 23.4924C149.546 23.2374 148.965 23.1099 148.136 23.1099L144.646 23.1099L144.646 21.2933L162.908 21.2933C166.413 21.2933 169.154 22.0741 171.13 23.6358C173.106 25.1974 174.094 27.3167 174.094 29.9938C174.094 32.161 173.361 33.9776 171.895 35.4436C170.843 36.4953 169.537 37.2602 167.975 37.7382C166.859 38.0888 165.107 38.3915 162.716 38.6465C164.915 39.252 166.493 39.8894 167.449 40.5587C168.883 41.5467 169.823 42.933 170.27 44.7177C171.767 50.773 173.074 53.8006 174.19 53.8006C174.795 53.8006 175.297 53.3545 175.695 52.4621C176.094 51.5697 176.293 50.3587 176.293 48.8289L177.918 48.8289C177.918 54.2787 175.911 57.0036 171.895 57.0036C170.174 57.0036 168.796 56.3821 167.76 55.1392C166.724 53.8963 166.206 52.1275 166.206 49.8328C166.206 46.1678 165.696 43.5545 164.676 41.9928C163.497 40.2081 161.378 39.3158 158.318 39.3158L155.45 39.3158ZM155.45 24.8309L155.45 37.4992L159.657 37.4992C162.78 37.4992 165.051 36.9335 166.469 35.8021C167.887 34.6707 168.596 32.8302 168.596 30.2806C168.596 27.1893 167.768 25.1496 166.111 24.1616C164.931 23.4605 162.748 23.1099 159.561 23.1099C158.127 23.1099 157.299 23.1258 157.075 23.1577C155.992 23.3171 155.45 23.8748 155.45 24.8309Z"/>
<path d="M179.639 23.1099L179.639 21.2933L207.605 21.2933L208.322 33.1967L206.697 33.1967C206.059 29.6592 205.087 27.0937 203.781 25.5002C202.474 23.9067 200.642 23.1099 198.283 23.1099L191.352 23.1099C190.204 23.1099 189.631 23.6995 189.631 24.8787L189.631 37.4514L192.69 37.4514C194.443 37.4514 195.813 36.8618 196.801 35.6826C197.789 34.5034 198.283 32.7346 198.283 30.3763L199.956 30.3763L199.956 46.7733L198.283 46.7733C198.283 41.7379 196.339 39.2202 192.451 39.2202L189.631 39.2202L189.631 53.227C189.631 54.2787 190.379 54.8045 191.877 54.8045L197.375 54.8045C203.335 54.8045 206.745 51.028 207.605 43.4748L209.326 43.4748L208.753 56.6211L179.639 56.6211L179.639 54.8045L182.03 54.8045C183.751 54.8045 184.611 54.1671 184.611 52.8924L184.611 24.8787C184.611 23.6995 183.91 23.1099 182.508 23.1099L179.639 23.1099Z"/>
<path d="M216.545 50.5021L228.592 20.5284L230.169 20.5284L242.885 52.8445C243.363 54.1512 244.399 54.8045 245.993 54.8045L247.092 54.8045L247.092 56.6211L232.99 56.6211L232.99 54.8045L234.137 54.8045C236.623 54.8045 237.866 54.3106 237.866 53.3226C237.866 53.0358 237.802 52.7489 237.674 52.4621L234.758 44.9089L220.752 44.9089L219.126 49.2592C218.839 50.0241 218.68 50.5021 218.648 50.6933C218.521 51.1714 218.457 51.6494 218.457 52.1275C218.457 52.8286 218.847 53.4501 219.628 53.9919C220.409 54.5337 221.453 54.8045 222.759 54.8045L223.954 54.8045L223.954 56.6211L211.143 56.6211L211.143 54.8045L211.525 54.8045C213.724 54.8045 215.397 53.3704 216.545 50.5021ZM234.041 43.0924L227.874 27.3645L221.564 43.0924L234.041 43.0924Z"/>
</g>
<path d="M126.682 164.304C121.95 164.304 118.096 162.84 115.121 159.913C112.145 156.987 110.657 153.352 110.657 149.011C110.657 145.352 111.755 142.157 113.95 139.426C115.999 136.889 119.316 134.45 123.901 132.109C122.779 129.767 121.95 127.767 121.413 126.109C120.73 123.962 120.389 121.938 120.389 120.035C120.389 116.621 121.621 113.755 124.084 111.438C126.547 109.121 129.633 107.962 133.34 107.962C136.706 107.962 139.413 108.816 141.462 110.523C143.511 112.231 144.535 114.596 144.535 117.621C144.535 123.328 140.218 128.157 131.584 132.109C134.121 136.45 135.901 139.401 136.925 140.962C139.316 144.67 141.803 148.06 144.389 151.133C148.194 146.352 150.096 142.45 150.096 139.426C150.096 138.157 149.608 137.133 148.633 136.352C147.657 135.572 146.243 135.182 144.389 135.182L142.413 135.182L142.413 132.621L162.755 132.621L162.755 135.182L161.218 135.182C157.95 135.182 155.047 137.767 152.511 142.938C150.413 147.182 148.34 150.621 146.291 153.255C148.047 155.011 149.596 156.291 150.938 157.096C152.279 157.901 153.682 158.304 155.145 158.304C158.413 158.304 160.34 155.67 160.925 150.401L163.194 150.401C163.194 154.791 162.267 158.206 160.413 160.645C158.56 163.084 156.047 164.304 152.877 164.304C149.413 164.304 145.56 162.328 141.316 158.377C138.779 160.426 136.425 161.926 134.255 162.877C132.084 163.828 129.56 164.304 126.682 164.304ZM130.121 129.255C133.243 127.889 135.511 126.426 136.925 124.865C138.535 123.06 139.34 120.816 139.34 118.133C139.34 115.889 138.755 114.109 137.584 112.791C136.413 111.474 134.877 110.816 132.974 110.816C131.072 110.816 129.523 111.413 128.328 112.609C127.133 113.804 126.535 115.45 126.535 117.548C126.535 119.401 126.852 121.304 127.486 123.255C127.974 124.816 128.852 126.816 130.121 129.255ZM125.218 134.962C119.999 137.889 117.389 141.304 117.389 145.206C117.389 148.67 118.608 151.938 121.047 155.011C123.682 158.328 126.657 159.987 129.974 159.987C133.047 159.987 136.169 158.767 139.34 156.328C137.486 154.084 135.633 151.645 133.779 149.011C132.56 147.255 131.084 144.938 129.352 142.06C127.621 139.182 126.243 136.816 125.218 134.962Z" fill="#a7734e" opacity="1" stroke="none" vectornator:layerName="Text 2"/>
<g fill="#a7734e" opacity="1" stroke="none" vectornator:layerName="Text 3">
<path d="M82.7671 218.986L82.7671 217.17L94.5749 217.17L105.092 245.04L114.844 217.17L126.891 217.17L126.891 218.986L123.258 218.986C121.951 218.986 121.298 219.656 121.298 220.994L121.298 248.96C121.298 250.107 122.11 250.681 123.736 250.681L126.891 250.681L126.891 252.498L110.733 252.498L110.733 250.681L114.175 250.681C114.78 250.681 115.282 250.53 115.681 250.227C116.079 249.924 116.278 249.502 116.278 248.96L116.278 218.938L104.566 252.498L102.941 252.498L90.368 219.082L90.368 244.753C90.368 246.984 90.8142 248.53 91.7066 249.39C92.5989 250.251 94.0809 250.681 96.1524 250.681L96.1524 252.498L82.7671 252.498L82.7671 250.681C84.8067 250.681 86.2568 250.267 87.1173 249.438C87.9778 248.609 88.408 247.143 88.408 245.04L88.408 220.659C88.408 219.544 87.7069 218.986 86.3046 218.986L82.7671 218.986Z"/>
<path d="M133.918 246.378L145.965 216.405L147.543 216.405L160.259 248.721C160.737 250.028 161.773 250.681 163.366 250.681L164.466 250.681L164.466 252.498L150.363 252.498L150.363 250.681L151.51 250.681C153.996 250.681 155.239 250.187 155.239 249.199C155.239 248.912 155.176 248.625 155.048 248.338L152.132 240.785L138.125 240.785L136.5 245.136C136.213 245.9 136.054 246.378 136.022 246.57C135.894 247.048 135.83 247.526 135.83 248.004C135.83 248.705 136.221 249.326 137.002 249.868C137.783 250.41 138.826 250.681 140.133 250.681L141.328 250.681L141.328 252.498L128.516 252.498L128.516 250.681L128.899 250.681C131.098 250.681 132.771 249.247 133.918 246.378ZM151.415 238.969L145.248 223.241L138.938 238.969L151.415 238.969Z"/>
<path d="M165.995 218.938L165.995 217.17L180.48 217.17L180.48 218.986L178.233 218.986C176.576 218.986 175.748 219.353 175.748 220.086C175.748 220.277 175.827 220.516 175.987 220.803C176.018 220.867 176.162 221.074 176.417 221.424L183.253 231.368L188.368 223.48C188.496 223.257 188.695 222.89 188.966 222.38C189.237 221.871 189.372 221.536 189.372 221.377C189.372 220.484 189.101 219.855 188.559 219.488C188.017 219.122 186.95 218.938 185.356 218.938L185.356 217.17L198.168 217.17L198.168 218.938C195.65 218.938 193.531 220.181 191.81 222.667L184.496 233.28L195.682 249.39C196.033 249.932 196.471 250.283 196.997 250.442C197.523 250.601 198.28 250.681 199.268 250.681L199.268 252.498L185.356 252.498L185.356 250.681L187.269 250.681C188.926 250.681 189.754 250.283 189.754 249.486C189.754 249.231 189.683 248.976 189.539 248.721C189.396 248.466 189.213 248.195 188.99 247.908L181.819 237.391L176.417 245.04C176.066 245.582 175.827 245.98 175.7 246.235C175.349 246.936 175.174 247.621 175.174 248.291C175.174 249.884 176.146 250.681 178.09 250.681L179.476 250.681L179.476 252.498L165.995 252.498L165.995 250.681C167.398 250.681 168.664 250.314 169.796 249.581C170.927 248.848 172.019 247.733 173.07 246.235L180.48 235.431L170.871 221.568C170.107 220.484 169.421 219.775 168.816 219.44C168.21 219.106 167.27 218.938 165.995 218.938Z"/>
</g>
</g>
</svg>
